HIERARCHY
ROOT hip
{
  OFFSET 0.0 0.0 0.0
  CHANNELS 6 Xposition Yposition Zposition Zrotation Yrotation Xrotation
  JOINT torso
  {
    OFFSET 0.0 0.0 0.0
    CHANNELS 3 Zrotation Xrotation Yrotation
    JOINT neck
    {
      OFFSET -20.11218299999996 327.95800799999995 66.30578600000035
      CHANNELS 3 Zrotation Xrotation Yrotation
      JOINT head
      {
        OFFSET 18.28939800000012 288.83178699999996 217.81652800000006
        CHANNELS 3 Zrotation Xrotation Yrotation
        End Site
        {
          OFFSET 0.0 0.0 0.0
        }
      }
    }
    JOINT left_collar
    {
      OFFSET -20.11218299999996 327.95800799999995 66.30578600000035
      CHANNELS 3 Zrotation Xrotation Yrotation
      JOINT left_upper_arm
      {
        OFFSET -127.08163400000001 -16.17407199999991 15.44799799999987
        CHANNELS 3 Zrotation Xrotation Yrotation
        JOINT left_forearm
        {
          OFFSET -234.267792 45.78796399999999 109.31286600000021
          CHANNELS 3 Zrotation Xrotation Yrotation
          JOINT left_hand
          {
            OFFSET -259.114014 -33.25433399999997 16.18847699999992
            CHANNELS 3 Zrotation Xrotation Yrotation
            End Site
            {
              OFFSET 0.0 0.0 0.0
            }
          }
        }
      }
    }
    JOINT right_collar
    {
      OFFSET -20.11218299999996 327.95800799999995 66.30578600000035
      CHANNELS 3 Zrotation Xrotation Yrotation
      JOINT right_upper_arm
      {
        OFFSET 164.513184 1.5733030000000099 4.892333999999892
        CHANNELS 3 Zrotation Xrotation Yrotation
        JOINT right_forearm
        {
          OFFSET 260.742027 48.718444999999974 144.35229500000014
          CHANNELS 3 Zrotation Xrotation Yrotation
          JOINT right_hand
          {
            OFFSET 287.85150899999996 -44.57171600000015 13.96813899999961
            CHANNELS 3 Zrotation Xrotation Yrotation
            End Site
            {
              OFFSET 0.0 0.0 0.0
            }
          }
        }
      }
    }
  }
}
MOTION
Frames: 13
Frame Time: 0.01
160.78465839116257 180.50755448149224 1637.6831444321494 3.999087387089834 -29.660023589022178 -16.11979456105545 0.6111054245676318 -4.321910837244717 -0.4087948185430158 -2.4136818793029047 5.444715990151198 1.4131711843466561 0.0 0.0 0.0 11.106906385850142 -0.7602035571651211 9.389868598766197 22.83773939053083 15.90248481232115 -70.78537003657367 -10.544276947768212 0.004836554360439659 -18.296697862804415 0.0 0.0 0.0 -4.002423468170339 0.06361660753136937 -2.1826644994739053 -15.994951398573736 8.019013874462251 75.56239520889109 11.538204472970916 0.09470402089779052 12.172506931126247 0.0 0.0 0.0
160.76083214670064 180.53133838122224 1637.8664882475089 3.9480523593345325 -29.65146390210585 -16.067129937140006 0.6245459867842071 -4.3286706939005395 -0.4124428498586998 -2.4064176603610585 5.485676145500775 1.4046318453630475 0.0 0.0 0.0 11.105472354214639 -0.7588146569541121 9.38346743416224 22.84088297298347 15.910582039595413 -70.80465294730767 -10.539595418289721 0.0054249421130277715 -18.28412028507502 0.0 0.0 0.0 -3.9942964954128706 0.06309710389062077 -2.1997583890602312 -15.984421209639072 7.9955630124082715 75.55782428933912 11.54279060276047 0.09392520027497922 12.17126526927834 0.0 0.0 0.0
160.73409622396417 180.55795501342658 1638.0437074840816 3.895901860794061 -29.643048551054715 -16.015394409740985 0.639068548253567 -4.3344766146279685 -0.416287748287063 -2.398403304624835 5.527091880072697 1.3955064501520997 0.0 0.0 0.0 11.103577686213656 -0.7576882314770386 9.378148525413343 22.84359347341185 15.918200011076406 -70.82549643926428 -10.534784054438493 0.006076975876137781 -18.27250211542175 0.0 0.0 0.0 -3.9858726108719678 0.06258445956737617 -2.2165544770545997 -15.973656369991366 7.971603061769009 75.55269293507195 11.54803720200565 0.09316231035914023 12.172222802858087 0.0 0.0 0.0
160.70474524638814 180.58818943626142 1638.2136644370748 3.8431800548585384 -29.63473678544009 -15.96505979880958 0.6544229657014041 -4.3390663642585015 -0.42025238675900123 -2.389764422066852 5.568810277460979 1.3858995794895443 0.0 0.0 0.0 11.10119413859705 -0.7568810032423836 9.374158241739977 22.84601389230753 15.92551709314768 -70.8475071972169 -10.529621902118944 0.006851464582226151 -18.262088290010645 0.0 0.0 0.0 -3.977204231983881 0.06208765886212248 -2.2327196141020687 -15.962873960645513 7.94763115636258 75.54650584061336 11.55393069458544 0.09243167432936049 12.175650001462323 0.0 0.0 0.0
160.6730312464228 180.62282189738977 1638.3752858205532 3.7904378008168442 -29.626470882992372 -15.91656549936303 0.6703351595820143 -4.3422083393804005 -0.424255724881289 -2.3806280008032163 5.610700176123599 1.3759150491269345 0.0 0.0 0.0 11.09829952580076 -0.756437584782355 9.371690565086709 22.848270685133176 15.932682132110582 -70.8702779489408 -10.523899057278083 0.0078047081066901685 -18.253123572008988 0.0 0.0 0.0 -3.9683434213434183 0.061615062902804975 -2.2479398695545414 -15.952293180204776 7.924149977906087 75.53877465155266 11.560479288852568 0.0917447212233122 12.181791730751375 0.0 0.0 0.0
160.63913503431445 180.66261346299947 1638.527586188033 3.738219065609304 -29.61816648417449 -15.870297827231834 0.686507024403315 -4.343717568857064 -0.42821387634609753 -2.3711141033894108 5.6526543323751675 1.365649638342661 0.0 0.0 0.0 11.09488052016029 -0.7563863473243072 9.370869300746348 22.850472189519667 15.939811900655204 -70.89338795364816 -10.517420138343466 0.00898964495847274 -18.245849484292005 0.0 0.0 0.0 -3.959335809328613 0.061173992510615324 -2.261934988211009 -15.942131870893697 7.9016596414112925 75.52902431143055 11.567714859513314 0.0911075846099396 12.190865447387328 0.0 0.0 0.0
160.60313905729882 180.70829333792935 1638.669688266563 3.68704776988213 -29.609703916977512 -15.82657164984309 0.7026170338114767 -4.343469619807221 -0.43204123284855134 -2.3613281850589765 5.694590316979369 1.3551873847038325 0.0 0.0 0.0 11.090935700243508 -0.7567358320630214 9.37173269855507 22.85270769736599 15.946989569088611 -70.91640342835773 -10.510007487927831 0.010455062743226651 -18.240501111529067 0.0 0.0 0.0 -3.9502143186061565 0.06077037249708648 -2.2744708689748423 -15.93260347146747 7.880650430659553 75.51679824309028 11.575693568860617 0.0905209434673133 12.203060385117206 0.0 0.0 0.0
160.56500283804112 180.76054839040006 1638.8008394101705 3.6374152119362195 -29.600921159027042 -15.78561512305419 0.7183219330208511 -4.341411597737039 -0.43565168017243483 -2.3513544102747206 5.736450215508095 1.3445947146893316 0.0 0.0 0.0 11.086478859763128 -0.7574719172527632 9.374221419848682 22.855047124946868 15.954264176941702 -70.93887819273472 -10.501504025663104 0.012244889599304459 -18.237303873675412 0.0 0.0 0.0 -3.9409931297948932 0.06040845190901664 -2.2853695320750886 -15.923914348187612 7.8615962945714175 75.50166242018638 11.584495189643006 0.08998010528804333 12.218537650754824 0.0 0.0 0.0
160.52454202063083 180.82001525227795 1638.9204235995028 3.5897681502415493 -29.591608981767703 -15.747558164215798 0.7332598925279613 -4.33756959613671 -0.4389599447534465 -2.341250273290458 5.77819926065811 1.3339166227040993 0.0 0.0 0.0 11.081542480841085 -0.7585559214086528 9.378170625355171 22.857541237676998 15.961651089326171 -70.96035482258982 -10.491775673927345 0.014397585155696155 -18.236470393797862 0.0 0.0 0.0 -3.931662341265683 0.06009060919520832 -2.2945162143892963 -15.916261414846911 7.844948928770763 75.48320847403427 11.594221149781434 0.08947532124372476 12.237431102968337 0.0 0.0 0.0
160.48141197216893 180.88727521920777 1639.0279686286501 3.5444975941530448 -29.581508704967046 -15.712425120146696 0.7470554477697833 -4.332052117072854 -0.4418831047877142 -2.331042762009461 5.819823544971716 1.3231740602479893 0.0 0.0 0.0 11.076181129532744 -0.7599237886689177 9.383306789942667 22.860222410177546 15.96913346113662 -70.98036658965624 -10.480713285567443 0.016945648003010187 -18.23819759069889 0.0 0.0 0.0 -3.9221837356278506 0.05981724667230534 -2.301863382106735 -15.909829936384888 7.831132231594717 75.46105605386204 11.604991369107523 0.08899231419608486 12.259848836921496 0.0 0.0 0.0
160.43509678042824 180.96285203741851 1639.1231483171725 3.5019283571437074 -29.570312863966233 -15.680131940470995 0.7593264653056748 -4.325049149101427 -0.4443422882851336 -2.320726244821612 5.861326953529358 1.3123626537442319 0.0 0.0 0.0 11.070474376239025 -0.7614864681608701 9.389249682408561 22.863105939518455 15.976664790154347 -70.9984404385356 -10.468234024656372 0.019915251564897308 -18.24266411902054 0.0 0.0 0.0 -3.912487973070596 0.059586775175703106 -2.307431573437977 -15.904791420334751 7.820536946415333 75.43485470592798 11.616940002711733 0.08851299255349973 12.285875055573067 0.0 0.0 0.0
160.3849043380906 181.0472125383127 1639.2057797722837 3.4623094613727075 -29.557668953008616 -15.650488029476314 0.7696932558757906 -4.316826764993136 -0.44626456247586815 -2.3102622020887336 5.90272743486276 1.301452828587829 0.0 0.0 0.0 11.06452873409633 -0.7631315609551846 9.39551977298699 22.866191958223492 15.984172681111453 -71.01410121158747 -10.45428218561389 0.02332601221421553 -18.25002825922504 0.0 0.0 0.0 -3.902473410939235 0.05939568725436594 -2.311307089768452 -15.901301528069496 7.813515365066512 75.40428555182297 11.630210247619674 0.08801631642251975 12.315572085336886 0.0 0.0 0.0
160.32996799391296 181.1407699622971 1639.2758159195519 3.425805529019291 -29.543186249962908 -15.623202795938036 0.7777898033562429 -4.307717303940591 -0.44758499737467156 -2.299580855664712 5.944052712957989 1.2903913681470645 0.0 0.0 0.0 11.058478107423142 -0.7647262563774279 9.401551114599567 22.869467985697348 15.99156391759371 -71.02687726554862 -10.438829467626272 0.027190886104296527 -18.260426334507834 0.0 0.0 0.0 -3.8920066361654397 0.059238715258936245 -2.3136366599391796 -15.899497968507522 7.810376037287457 75.36906302465151 11.644948412062911 0.08747927705520549 12.348982297175894 0.0 0.0 0.0
